<svg version="1.2" xmlns="http://www.w3.org/2000/svg" viewBox="0 0 2200 2200" width="2200" height="2200">
	<title>Circle Check and Cross Marks-ai</title>
	<style>
		.s0 { fill: #e02828 } 
		.s1 { fill: #ffffff } 
	</style>
	<g id="Objects">
		<g id="&lt;Group&gt;">
			<path id="&lt;Path&gt;" class="s0" d="m1099.9 2182.8c-598.8 0-1082.9-484.1-1082.9-1082.9 0-598.8 484.1-1082.9 1082.9-1082.9 598.8 0 1082.9 484.1 1082.9 1082.9 0 598.8-484.1 1082.9-1082.9 1082.9z"/>
			<path id="&lt;Path&gt;" class="s1" d="m1210.2 1099.9l341.1-341.1c30.5-30.5 30.5-79.8 0-110.3-30.4-30.5-79.8-30.5-110.3 0l-341.1 341.1-341.1-341.1c-30.5-30.5-79.9-30.5-110.3 0-30.5 30.5-30.5 79.8 0 110.3l341.1 341.1-341.1 341.1c-30.5 30.5-30.5 79.8 0 110.3 15.2 15.2 35.2 22.9 55.1 22.9 20 0 40-7.7 55.2-22.9l341.1-341.1 341.1 341.1c15.2 15.2 35.2 22.9 55.2 22.9 19.9 0 39.9-7.7 55.1-22.9 30.5-30.5 30.5-79.8 0-110.3z"/>
		</g>
	</g>
</svg>