<svg version="1.2" xmlns="http://www.w3.org/2000/svg" viewBox="0 0 2200 2200" width="2200" height="2200">
	<title>Circle Check and Cross Marks-ai</title>
	<style>
		.s0 { fill: #e02828 } 
	</style>
	<g id="Objects">
		<g id="&lt;Group&gt;">
			<path id="&lt;Compound Path&gt;" fill-rule="evenodd" class="s0" d="m1099.9 2182.8c-598.8 0-1082.9-484.1-1082.9-1082.9 0-598.8 484.1-1082.9 1082.9-1082.9 598.8 0 1082.9 484.1 1082.9 1082.9 0 598.8-484.1 1082.9-1082.9 1082.9zm854.1-722.2c48.3-114.1 72.8-235.5 72.8-360.7 0-125.2-24.5-246.6-72.8-360.7-46.7-110.4-113.5-209.5-198.7-294.7-85.2-85.2-184.3-152-294.7-198.7-114.1-48.3-235.5-72.8-360.7-72.8-125.2 0-246.6 24.5-360.7 72.8-110.4 46.7-209.5 113.5-294.7 198.7-85.2 85.2-152 184.3-198.7 294.7-48.3 114.1-72.8 235.5-72.8 360.7 0 125.2 24.5 246.6 72.8 360.7 46.7 110.4 113.5 209.5 198.7 294.7 85.2 85.2 184.3 152 294.7 198.7 114.1 48.3 235.5 72.8 360.7 72.8 125.2 0 246.6-24.5 360.7-72.8 110.4-46.7 209.5-113.5 294.7-198.7 85.2-85.2 152-184.3 198.7-294.7z"/>
			<path id="&lt;Path&gt;" class="s0" d="m1551.3 648.5c-30.4-30.5-79.8-30.5-110.3 0l-341.1 341.1-341.1-341.1c-30.5-30.5-79.9-30.5-110.3 0-30.5 30.5-30.5 79.8 0 110.3l341.1 341.1-341.1 341.1c-30.5 30.5-30.5 79.8 0 110.3 15.2 15.2 35.2 22.9 55.1 22.9 20 0 40-7.7 55.2-22.9l341.1-341.1 341.1 341.1c15.2 15.2 35.2 22.9 55.2 22.9 19.9 0 39.9-7.7 55.1-22.9 30.5-30.5 30.5-79.8 0-110.3l-341.1-341.1 341.1-341.1c30.5-30.5 30.5-79.8 0-110.3z"/>
		</g>
	</g>
</svg>