<svg version="1.2" xmlns="http://www.w3.org/2000/svg" viewBox="0 0 1000 1000" width="1000" height="1000">
	<title>518967-PISTOK-412-ai</title>
	<style>
		.s0 { fill: #406052 } 
		.s1 { fill: #bdefdc } 
		.s2 { fill: #8ed2bb } 
		.s3 { fill: #64a08a } 
		.s4 { fill: #996b20 } 
		.s5 { fill: #dba32c } 
		.s6 { fill: #edcb3a } 
		.s7 { fill: #c18925 } 
		.s8 { fill: #aa7921 } 
		.s9 { fill: #d0b170 } 
		.s10 { fill: #b79963 } 
		.s11 { fill: #e8c585 } 
		.s12 { fill: #f9deb2 } 
		.s13 { fill: #554c3d } 
		.s14 { fill: #494136 } 
		.s15 { fill: #685d4e } 
		.s16 { fill: #776c5e } 
		.s17 { fill: #877b6f } 
		.s18 { fill: #ffffff } 
	</style>
	<g id="BACKGROUND">
	</g>
	<g id="OBJECTS">
		<g id="&lt;Group&gt;">
			<g id="&lt;Group&gt;">
				<g id="&lt;Group&gt;">
					<g id="&lt;Group&gt;">
						<path id="&lt;Path&gt;" class="s0" d="m702.5 498.3c0-8.1 6.6-14.7 14.7-14.7h245.8c8.1 0 14.7 6.6 14.7 14.7v104.7c0 8.1-6.6 14.7-14.7 14.7h-245.8c-8.1 0-14.7-6.6-14.7-14.7z"/>
						<g id="&lt;Group&gt;">
							<path id="&lt;Path&gt;" class="s1" d="m675.6 498.3c0-8.1 6.6-14.7 14.7-14.7h245.8c8.1 0 14.7 6.6 14.7 14.7v104.7c0 8.1-6.6 14.7-14.7 14.7h-245.8c-8.1 0-14.7-6.6-14.7-14.7z"/>
							<path id="&lt;Path&gt;" class="s2" d="m682.3 500.1c0-5.4 4.4-9.8 9.8-9.8h242.2c5.4 0 9.8 4.4 9.8 9.8v101.1c0 5.4-4.4 9.8-9.8 9.8h-242.2c-5.4 0-9.8-4.4-9.8-9.8z"/>
							<path id="&lt;Path&gt;" class="s3" d="m930.7 490.3h-117.5v120.6h117.6c7.3 0 13.3-6 13.3-13.3v-94c0-7.4-6-13.3-13.4-13.3z"/>
							<path id="&lt;Path&gt;" class="s1" d="m813.2 606.3c-30.8 0-55.7-24.9-55.7-55.7 0-30.7 24.9-55.6 55.7-55.6 30.8 0 55.7 24.9 55.7 55.6 0 30.8-24.9 55.7-55.7 55.7z"/>
							<path id="&lt;Path&gt;" class="s0" d="m840 517.7c0-2-1.6-3.6-3.6-3.6h-46.5c-1.9 0-3.5 1.6-3.5 3.6 0 2 1.6 3.6 3.5 3.6h12.6c7.2 0 13.4 4.1 15.7 10h-28.3c-1.9 0-3.5 1.6-3.5 3.6 0 2 1.6 3.6 3.5 3.6l29.3-0.1c-0.9 7.8-8 13.9-16.6 13.9h-12.7c-1.9 0-3.5 1.6-3.5 3.5 0 2 1.6 3.6 3.6 3.6h7.7l23.2 31.1c0.8 1.1 2.1 1.8 3.4 1.8 3.5 0 5.5-4 3.4-6.8l-19.4-26.1h28.1c2 0 3.6-1.6 3.6-3.6 0-2-1.6-3.6-3.6-3.6l-12.4 0.1c3.2-3.9 5.3-8.7 5.7-13.9h6.7c2 0 3.6-1.6 3.6-3.5 0-2-1.6-3.6-3.6-3.6h-7.3c-0.9-3.7-2.7-7.1-5.2-10h12.5c2-0.1 3.6-1.6 3.6-3.6z"/>
							<path id="&lt;Path&gt;" class="s0" d="m721.6 490.4h-26c-7.4 0-13.3 6-13.3 13.3v26.1c21.5-0.5 38.9-17.9 39.3-39.4z"/>
							<path id="&lt;Path&gt;" class="s0" d="m682.2 571.7l0.1 26c0 7.3 5.9 13.3 13.3 13.3h26.1c-0.5-21.6-17.9-38.9-39.5-39.3z"/>
							<path id="&lt;Path&gt;" class="s0" d="m904.8 610.9h26c7.3 0 13.3-6 13.3-13.3v-26.1c-21.5 0.4-38.9 17.8-39.3 39.4z"/>
							<path id="&lt;Path&gt;" class="s0" d="m944.1 529.5v-25.9c0-7.4-5.9-13.3-13.3-13.3h-26.1c0.5 21.5 17.9 38.9 39.4 39.2z"/>
						</g>
					</g>
				</g>
			</g>
			<g id="&lt;Group&gt;">
				<g id="&lt;Group&gt;">
					<g id="&lt;Group&gt;">
						<path id="&lt;Path&gt;" class="s0" d="m116.6 498.3c0-8.1 6.6-14.7 14.7-14.7h245.8c8.1 0 14.7 6.6 14.7 14.7v104.7c0 8.1-6.6 14.7-14.7 14.7h-245.8c-8.1 0-14.7-6.6-14.7-14.7z"/>
						<g id="&lt;Group&gt;">
							<path id="&lt;Path&gt;" class="s1" d="m89.7 498.3c0-8.1 6.6-14.7 14.7-14.7h245.8c8.1 0 14.7 6.6 14.7 14.7v104.7c0 8.1-6.6 14.7-14.7 14.7h-245.8c-8.1 0-14.7-6.6-14.7-14.7z"/>
							<path id="&lt;Path&gt;" class="s2" d="m96.4 500.1c0-5.4 4.4-9.8 9.8-9.8h242.2c5.4 0 9.8 4.4 9.8 9.8v101.1c0 5.4-4.4 9.8-9.8 9.8h-242.2c-5.4 0-9.8-4.4-9.8-9.8z"/>
							<path id="&lt;Path&gt;" class="s3" d="m344.8 490.3h-117.5v120.6h117.6c7.3 0 13.3-6 13.3-13.3v-94c-0.1-7.4-6-13.3-13.4-13.3z"/>
							<path id="&lt;Path&gt;" class="s1" d="m227.3 606.3c-30.8 0-55.7-24.9-55.7-55.7 0-30.7 24.9-55.6 55.7-55.6 30.8 0 55.7 24.9 55.7 55.6 0 30.8-24.9 55.7-55.7 55.7z"/>
							<path id="&lt;Path&gt;" class="s0" d="m254.1 517.7c0-2-1.6-3.6-3.6-3.6h-46.5c-1.9 0-3.5 1.6-3.5 3.6 0 2 1.6 3.6 3.5 3.6h12.6c7.2 0 13.4 4.1 15.7 10h-28.3c-1.9 0-3.5 1.6-3.5 3.6 0 2 1.6 3.6 3.5 3.6l29.3-0.1c-0.9 7.8-8 13.9-16.6 13.9h-12.7c-1.9 0-3.5 1.6-3.5 3.5 0 2 1.6 3.6 3.5 3.6h7.8l23.2 31.1c0.8 1.1 2.1 1.8 3.4 1.8 3.5 0 5.5-4 3.4-6.8l-19.4-26.1h28.1c2 0 3.6-1.6 3.6-3.6 0-2-1.6-3.6-3.6-3.6l-12.5 0.1c3.3-3.9 5.4-8.7 5.8-13.9h6.7c2 0 3.6-1.6 3.6-3.5 0-2-1.6-3.6-3.6-3.6h-7.3c-0.9-3.7-2.7-7.1-5.2-10h12.5c2-0.1 3.6-1.6 3.6-3.6z"/>
							<path id="&lt;Path&gt;" class="s0" d="m135.6 490.4h-25.9c-7.4 0-13.3 6-13.3 13.3v26.1c21.5-0.5 38.9-17.9 39.2-39.4z"/>
							<path id="&lt;Path&gt;" class="s0" d="m96.3 571.7l0.1 26c0 7.3 5.9 13.3 13.3 13.3h26.1c-0.5-21.6-17.9-38.9-39.5-39.3z"/>
							<path id="&lt;Path&gt;" class="s0" d="m318.9 610.9h26c7.3 0 13.3-6 13.3-13.3v-26.1c-21.5 0.4-38.9 17.8-39.3 39.4z"/>
							<path id="&lt;Path&gt;" class="s0" d="m358.2 529.5v-25.9c0-7.4-5.9-13.3-13.3-13.3h-26.1c0.5 21.5 17.9 38.9 39.4 39.2z"/>
						</g>
					</g>
				</g>
			</g>
			<g id="&lt;Group&gt;">
				<g id="&lt;Group&gt;">
					<path id="&lt;Path&gt;" class="s4" d="m793.3 873.1c0-4 3.2-7.1 7.1-7.1h158.3c4 0 7.1 3.1 7.1 7.1v35.6c0 3.9-3.1 7.1-7.1 7.1h-158.3c-3.9 0-7.1-3.2-7.1-7.1z"/>
					<path id="&lt;Path&gt;" class="s5" d="m751.8 873.1c0-4 3.2-7.1 7.1-7.1h158.3c4 0 7.1 3.1 7.1 7.1v35.6c0 3.9-3.1 7.1-7.1 7.1h-158.3c-3.9 0-7.1-3.2-7.1-7.1z"/>
					<g id="&lt;Group&gt;">
						<path id="&lt;Path&gt;" class="s6" d="m831.6 915.8v-49.8h-70c-5.4 0-9.8 4.3-9.8 9.7v30.4c0 5.4 4.4 9.7 9.8 9.7z"/>
					</g>
					<g id="&lt;Group&gt;">
						<path id="&lt;Path&gt;" class="s6" d="m841.2 866h17.7v49.8h-17.7z"/>
					</g>
					<g id="&lt;Group&gt;">
						<path id="&lt;Path&gt;" class="s6" d="m868.2 866h9.4v49.8h-9.4z"/>
					</g>
				</g>
				<g id="&lt;Group&gt;">
					<path id="&lt;Path&gt;" class="s4" d="m778.9 823.5c0-4 3.2-7.1 7.1-7.1h158.3c3.9 0 7.1 3.1 7.1 7.1v35.6c0 3.9-3.2 7.1-7.1 7.1h-158.3c-3.9 0-7.1-3.2-7.1-7.1z"/>
					<path id="&lt;Path&gt;" class="s5" d="m737.4 823.5c0-4 3.1-7.1 7.1-7.1h158.3c3.9 0 7.1 3.1 7.1 7.1v35.6c0 3.9-3.2 7.1-7.1 7.1h-158.3c-4 0-7.1-3.2-7.1-7.1z"/>
					<g id="&lt;Group&gt;">
						<path id="&lt;Path&gt;" class="s6" d="m817.1 866.2v-49.8h-70c-5.4 0-9.7 4.3-9.7 9.7v30.4c0 5.4 4.3 9.7 9.7 9.7z"/>
					</g>
					<g id="&lt;Group&gt;">
						<path id="&lt;Path&gt;" class="s6" d="m826.7 816.4h17.7v49.8h-17.7z"/>
					</g>
					<g id="&lt;Group&gt;">
						<path id="&lt;Path&gt;" class="s6" d="m853.8 816.4h9.3v49.8h-9.3z"/>
					</g>
				</g>
				<g id="&lt;Group&gt;">
					<path id="&lt;Path&gt;" class="s4" d="m811.3 773.8c0-3.9 3.2-7.1 7.1-7.1h158.3c3.9 0 7.1 3.2 7.1 7.1v35.7c0 3.9-3.2 7.1-7.1 7.1h-158.3c-3.9 0-7.1-3.2-7.1-7.1z"/>
					<path id="&lt;Path&gt;" class="s5" d="m769.8 773.8c0-3.9 3.2-7.1 7.1-7.1h158.3c3.9 0 7.1 3.2 7.1 7.1v35.7c0 3.9-3.2 7.1-7.1 7.1h-158.3c-3.9 0-7.1-3.2-7.1-7.1z"/>
					<g id="&lt;Group&gt;">
						<path id="&lt;Path&gt;" class="s6" d="m849.5 816.6v-49.9h-70c-5.4 0-9.7 4.4-9.7 9.8v30.4c0 5.4 4.3 9.7 9.7 9.7z"/>
					</g>
					<g id="&lt;Group&gt;">
						<path id="&lt;Path&gt;" class="s6" d="m859.1 766.7h17.7v49.9h-17.7z"/>
					</g>
					<g id="&lt;Group&gt;">
						<path id="&lt;Path&gt;" class="s6" d="m886.2 766.7h9.3v49.9h-9.3z"/>
					</g>
				</g>
				<g id="&lt;Group&gt;">
					<path id="&lt;Path&gt;" class="s4" d="m783.9 724.2c0-3.9 3.1-7.1 7.1-7.1h158.3c3.9 0 7.1 3.2 7.1 7.1v35.7c0 3.9-3.2 7.1-7.1 7.1h-158.3c-4 0-7.1-3.2-7.1-7.1z"/>
					<path id="&lt;Path&gt;" class="s5" d="m742.4 724.2c0-3.9 3.1-7.1 7.1-7.1h158.3c3.9 0 7.1 3.2 7.1 7.1v35.7c0 3.9-3.2 7.1-7.1 7.1h-158.3c-4 0-7.1-3.2-7.1-7.1z"/>
					<g id="&lt;Group&gt;">
						<path id="&lt;Path&gt;" class="s6" d="m822.1 767v-49.9h-70c-5.4 0-9.7 4.4-9.7 9.8v30.4c0 5.3 4.3 9.7 9.7 9.7z"/>
					</g>
					<g id="&lt;Group&gt;">
						<path id="&lt;Path&gt;" class="s6" d="m831.7 717.1h17.7v49.9h-17.7z"/>
					</g>
					<g id="&lt;Group&gt;">
						<path id="&lt;Path&gt;" class="s6" d="m858.8 717.1h9.3v49.9h-9.3z"/>
					</g>
				</g>
				<g id="&lt;Group&gt;">
					<path id="&lt;Path&gt;" class="s4" d="m821.5 674.6c0-3.9 3.2-7.1 7.1-7.1h158.3c3.9 0 7.1 3.2 7.1 7.1v35.7c0 3.9-3.2 7.1-7.1 7.1h-158.3c-3.9 0-7.1-3.2-7.1-7.1z"/>
					<path id="&lt;Path&gt;" class="s5" d="m780 674.6c0-3.9 3.2-7.1 7.1-7.1h158.3c3.9 0 7.1 3.2 7.1 7.1v35.7c0 3.9-3.2 7.1-7.1 7.1h-158.3c-3.9 0-7.1-3.2-7.1-7.1z"/>
					<g id="&lt;Group&gt;">
						<path id="&lt;Path&gt;" class="s6" d="m859.8 717.4v-49.9h-70.1c-5.3 0-9.7 4.4-9.7 9.8v30.4c0 5.3 4.4 9.7 9.7 9.7z"/>
					</g>
					<g id="&lt;Group&gt;">
						<path id="&lt;Path&gt;" class="s6" d="m869.4 667.5h17.7v49.9h-17.7z"/>
					</g>
					<g id="&lt;Group&gt;">
						<path id="&lt;Path&gt;" class="s6" d="m896.4 667.5h9.4v49.9h-9.4z"/>
					</g>
				</g>
				<g id="&lt;Group&gt;">
					<path id="&lt;Path&gt;" class="s4" d="m785.6 625c0-3.9 3.2-7.1 7.1-7.1h158.3c3.9 0 7.1 3.2 7.1 7.1v35.7c0 3.9-3.2 7.1-7.1 7.1h-158.3c-3.9 0-7.1-3.2-7.1-7.1z"/>
					<path id="&lt;Path&gt;" class="s5" d="m744.1 625c0-3.9 3.2-7.1 7.1-7.1h158.3c3.9 0 7.1 3.2 7.1 7.1v35.7c0 3.9-3.2 7.1-7.1 7.1h-158.3c-3.9 0-7.1-3.2-7.1-7.1z"/>
					<g id="&lt;Group&gt;">
						<path id="&lt;Path&gt;" class="s6" d="m823.9 667.8v-49.9h-70.1c-5.3 0-9.7 4.4-9.7 9.8v30.4c0 5.3 4.4 9.7 9.7 9.7z"/>
					</g>
					<g id="&lt;Group&gt;">
						<path id="&lt;Path&gt;" class="s6" d="m833.5 617.9h17.7v49.9h-17.7z"/>
					</g>
					<g id="&lt;Group&gt;">
						<path id="&lt;Path&gt;" class="s6" d="m860.5 617.9h9.4v49.9h-9.4z"/>
					</g>
				</g>
			</g>
			<g id="&lt;Group&gt;">
				<g id="&lt;Group&gt;">
					<path id="&lt;Path&gt;" class="s4" d="m62 873.1c0-4 3.1-7.1 7.1-7.1h158.3c3.9 0 7.1 3.1 7.1 7.1v35.6c0 3.9-3.2 7.1-7.1 7.1h-158.3c-4 0-7.1-3.2-7.1-7.1z"/>
					<path id="&lt;Path&gt;" class="s5" d="m20.5 873.1c0-4 3.1-7.1 7.1-7.1h158.3c3.9 0 7.1 3.1 7.1 7.1v35.6c0 3.9-3.2 7.1-7.1 7.1h-158.3c-4 0-7.1-3.2-7.1-7.1z"/>
					<g id="&lt;Group&gt;">
						<path id="&lt;Path&gt;" class="s6" d="m100.2 915.8v-49.8h-70c-5.4 0-9.7 4.3-9.7 9.7v30.4c0 5.4 4.3 9.7 9.7 9.7z"/>
					</g>
					<g id="&lt;Group&gt;">
						<path id="&lt;Path&gt;" class="s6" d="m109.8 866h17.7v49.8h-17.7z"/>
					</g>
					<g id="&lt;Group&gt;">
						<path id="&lt;Path&gt;" class="s6" d="m136.9 866h9.3v49.8h-9.3z"/>
					</g>
				</g>
				<g id="&lt;Group&gt;">
					<path id="&lt;Path&gt;" class="s4" d="m47.5 823.5c0-4 3.2-7.1 7.1-7.1h158.3c3.9 0 7.1 3.1 7.1 7.1v35.6c0 3.9-3.2 7.1-7.1 7.1h-158.3c-3.9 0-7.1-3.2-7.1-7.1z"/>
					<path id="&lt;Path&gt;" class="s5" d="m6 823.5c0-4 3.2-7.1 7.1-7.1h158.3c3.9 0 7.1 3.1 7.1 7.1v35.6c0 3.9-3.2 7.1-7.1 7.1h-158.3c-3.9 0-7.1-3.2-7.1-7.1z"/>
					<g id="&lt;Group&gt;">
						<path id="&lt;Path&gt;" class="s6" d="m85.8 866.2v-49.8h-70.1c-5.3 0-9.7 4.3-9.7 9.7v30.4c0 5.4 4.4 9.7 9.7 9.7z"/>
					</g>
					<g id="&lt;Group&gt;">
						<path id="&lt;Path&gt;" class="s6" d="m95.4 816.4h17.7v49.8h-17.7z"/>
					</g>
					<g id="&lt;Group&gt;">
						<path id="&lt;Path&gt;" class="s6" d="m122.4 816.4h9.4v49.8h-9.4z"/>
					</g>
				</g>
				<g id="&lt;Group&gt;">
					<path id="&lt;Path&gt;" class="s4" d="m79.9 773.8c0-3.9 3.2-7.1 7.1-7.1h158.3c3.9 0 7.1 3.2 7.1 7.1v35.7c0 3.9-3.2 7.1-7.1 7.1h-158.3c-3.9 0-7.1-3.2-7.1-7.1z"/>
					<path id="&lt;Path&gt;" class="s5" d="m38.4 773.8c0-3.9 3.2-7.1 7.1-7.1h158.3c3.9 0 7.1 3.2 7.1 7.1v35.7c0 3.9-3.2 7.1-7.1 7.1h-158.3c-3.9 0-7.1-3.2-7.1-7.1z"/>
					<g id="&lt;Group&gt;">
						<path id="&lt;Path&gt;" class="s6" d="m118.2 816.6v-49.9h-70.1c-5.3 0-9.7 4.4-9.7 9.8v30.4c0 5.4 4.4 9.7 9.7 9.7z"/>
					</g>
					<g id="&lt;Group&gt;">
						<path id="&lt;Path&gt;" class="s6" d="m127.8 766.7h17.7v49.9h-17.7z"/>
					</g>
					<g id="&lt;Group&gt;">
						<path id="&lt;Path&gt;" class="s6" d="m154.8 766.7h9.4v49.9h-9.4z"/>
					</g>
				</g>
				<g id="&lt;Group&gt;">
					<path id="&lt;Path&gt;" class="s4" d="m52.5 724.2c0-3.9 3.2-7.1 7.1-7.1h158.3c3.9 0 7.1 3.2 7.1 7.1v35.7c0 3.9-3.2 7.1-7.1 7.1h-158.3c-3.9 0-7.1-3.2-7.1-7.1z"/>
					<path id="&lt;Path&gt;" class="s5" d="m11 724.2c0-3.9 3.2-7.1 7.1-7.1h158.3c3.9 0 7.1 3.2 7.1 7.1v35.7c0 3.9-3.2 7.1-7.1 7.1h-158.3c-3.9 0-7.1-3.2-7.1-7.1z"/>
					<g id="&lt;Group&gt;">
						<path id="&lt;Path&gt;" class="s6" d="m90.8 767v-49.9h-70.1c-5.4 0-9.7 4.4-9.7 9.8v30.4c0 5.3 4.3 9.7 9.7 9.7z"/>
					</g>
					<g id="&lt;Group&gt;">
						<path id="&lt;Path&gt;" class="s6" d="m100.4 717.1h17.6v49.9h-17.6z"/>
					</g>
					<g id="&lt;Group&gt;">
						<path id="&lt;Path&gt;" class="s6" d="m127.4 717.1h9.3v49.9h-9.3z"/>
					</g>
				</g>
				<g id="&lt;Group&gt;">
					<path id="&lt;Path&gt;" class="s4" d="m90.1 674.6c0-3.9 3.2-7.1 7.1-7.1h158.3c4 0 7.1 3.2 7.1 7.1v35.7c0 3.9-3.1 7.1-7.1 7.1h-158.3c-3.9 0-7.1-3.2-7.1-7.1z"/>
					<path id="&lt;Path&gt;" class="s5" d="m48.6 674.6c0-3.9 3.2-7.1 7.1-7.1h158.3c3.9 0 7.1 3.2 7.1 7.1v35.7c0 3.9-3.2 7.1-7.1 7.1h-158.3c-3.9 0-7.1-3.2-7.1-7.1z"/>
					<g id="&lt;Group&gt;">
						<path id="&lt;Path&gt;" class="s6" d="m128.4 717.4v-49.9h-70.1c-5.3 0-9.7 4.4-9.7 9.8v30.4c0 5.3 4.4 9.7 9.7 9.7z"/>
					</g>
					<g id="&lt;Group&gt;">
						<path id="&lt;Path&gt;" class="s6" d="m138 667.5h17.7v49.9h-17.7z"/>
					</g>
					<g id="&lt;Group&gt;">
						<path id="&lt;Path&gt;" class="s6" d="m165 667.5h9.4v49.9h-9.4z"/>
					</g>
				</g>
				<g id="&lt;Group&gt;">
					<path id="&lt;Path&gt;" class="s4" d="m54.2 625c0-3.9 3.2-7.1 7.1-7.1h158.3c4 0 7.1 3.2 7.1 7.1v35.7c0 3.9-3.1 7.1-7.1 7.1h-158.3c-3.9 0-7.1-3.2-7.1-7.1z"/>
					<path id="&lt;Path&gt;" class="s5" d="m12.7 625c0-3.9 3.2-7.1 7.1-7.1h158.3c4 0 7.1 3.2 7.1 7.1v35.7c0 3.9-3.1 7.1-7.1 7.1h-158.3c-3.9 0-7.1-3.2-7.1-7.1z"/>
					<g id="&lt;Group&gt;">
						<path id="&lt;Path&gt;" class="s6" d="m92.5 667.8v-49.9h-70c-5.4 0-9.8 4.4-9.8 9.8v30.4c0 5.3 4.4 9.7 9.8 9.7z"/>
					</g>
					<g id="&lt;Group&gt;">
						<path id="&lt;Path&gt;" class="s6" d="m102.1 617.9h17.7v49.9h-17.7z"/>
					</g>
					<g id="&lt;Group&gt;">
						<path id="&lt;Path&gt;" class="s6" d="m129.1 617.9h9.4v49.9h-9.4z"/>
					</g>
				</g>
			</g>
			<g id="&lt;Group&gt;">
				<path id="&lt;Path&gt;" class="s4" d="m169.5 916.9c-68.4 0-123.7-55.2-123.7-123.6 0-68.4 55.3-123.7 123.7-123.7 68.4 0 123.7 55.3 123.7 123.7 0 68.4-55.3 123.6-123.7 123.6z"/>
				<path id="&lt;Path&gt;" class="s4" d="m149.8 669.6h20.7v247.4h-20.7z"/>
				<path id="&lt;Path&gt;" class="s5" d="m147.5 916.9c-68.4 0-123.7-55.2-123.7-123.6 0-68.4 55.3-123.7 123.7-123.7 68.4 0 123.7 55.3 123.7 123.7 0 68.4-55.3 123.6-123.7 123.6z"/>
				<g id="&lt;Group&gt;">
					<path id="&lt;Path&gt;" class="s6" d="m147.5 884.9c-50.7 0-91.6-41-91.6-91.6 0-50.7 40.9-91.6 91.6-91.6 50.6 0 91.6 40.9 91.6 91.6 0 50.6-41 91.6-91.6 91.6z"/>
				</g>
				<path id="&lt;Path&gt;" class="s7" d="m61.6 793.3c0-49.6 39.5-90 88.8-91.5q-1.5-0.1-2.9-0.1c-50.6 0-91.6 41-91.6 91.6 0 50.6 41 91.6 91.6 91.6q1.4 0 2.9-0.1c-49.3-1.5-88.8-41.9-88.8-91.5z"/>
				<path id="&lt;Path&gt;" class="s8" d="m190.7 740.8c0-3.1-2.5-5.7-5.7-5.7l-74.3 0.1c-3.2 0-5.7 2.5-5.7 5.7 0 3.1 2.5 5.7 5.7 5.7h20.1c11.5 0 21.3 6.6 25.1 16h-45.2c-3.2 0-5.7 2.6-5.7 5.8 0 3.1 2.5 5.7 5.7 5.7l46.8-0.1c-1.5 12.5-12.8 22.1-26.6 22.1h-20.2c-3.2 0-5.7 2.6-5.7 5.7 0 3.2 2.5 5.8 5.7 5.8l12.3-0.1 37.2 49.8c1.3 1.8 3.3 2.8 5.5 2.8 5.6 0 8.8-6.4 5.4-10.9l-31.1-41.7h45c3.2 0 5.8-2.5 5.7-5.7 0-3.1-2.5-5.7-5.7-5.7h-19.9c5.2-6.2 8.5-13.8 9.1-22.1h10.8c3.2 0 5.7-2.5 5.7-5.7 0-3.1-2.5-5.7-5.7-5.7h-11.7c-1.4-5.9-4.3-11.4-8.3-16.1h20c3.2 0 5.7-2.5 5.7-5.7z"/>
			</g>
			<g id="&lt;Group&gt;">
				<g id="&lt;Group&gt;">
					<path id="&lt;Path&gt;" class="s9" d="m631.5 284.2l54.6-79.9c22.8-33.3-1.1-78.4-41.4-78.4h-162.2-162.1c-40.3 0-64.2 45.1-41.4 78.4l55.1 80.7c14.8 21.6 10.4 51-10 67.4-94.9 76.4-182.4 202.1-182.4 320.8 0 187.7 152.2 244.3 339.9 244.3 187.8 0 339.9-56.6 339.9-244.3 0-119.1-84.9-245.3-179.9-321.6-20.5-16.5-24.8-45.8-10.1-67.4z"/>
				</g>
				<g id="&lt;Group&gt;">
					<path id="&lt;Path&gt;" class="s10" d="m641.6 351.6c-20.5-16.5-24.8-45.8-10.1-67.4l54.6-79.9c22.8-33.3-1.1-78.4-41.4-78.4h-26.9c40.3 0 64.1 45.1 41.4 78.4l-54.6 79.9c-14.8 21.6-10.4 50.9 10 67.4 95 76.3 180 202.5 180 321.6 0 183.2-144.9 241.5-326.4 244.2q6.7 0.1 13.4 0.1c187.8 0 339.9-56.6 339.9-244.3 0-119.1-84.9-245.3-179.9-321.6z"/>
				</g>
				<path id="&lt;Path&gt;" class="s11" d="m562.4 351.6c-20.4-16.5-24.8-45.8-10-67.4l54.5-79.9c22.8-33.3-1-78.4-41.4-78.4h-36.6c-17.3 0-34-7.7-44.5-21.5-11.5-15.4-29.9-25.4-50.7-25.4-20.8 0-39.2 10-50.7 25.4-10.5 13.8-27.2 21.5-44.5 21.5h-17.5c-40.3 0-64.2 45.1-41.4 78.4l55.1 80.7c14.8 21.6 10.5 51-9.9 67.4-95 76.4-182.5 202.1-182.5 320.8 0 187.7 115.1 244.3 302.9 244.3 187.7 0 297.2-56.6 297.2-244.3 0-119.1-85-245.3-180-321.6z"/>
				<path id="&lt;Path&gt;" class="s12" d="m294 501.8c-32.2 43-70.3 68.9-85 57.9-14.8-11.1-0.7-54.9 31.5-97.9 32.2-43 70.2-68.9 85-57.8 14.7 11 0.6 54.9-31.5 97.8z"/>
				<path id="&lt;Path&gt;" class="s12" d="m311.8 165.1c-13.1 8.8-26.3 11.8-29.6 6.9-3.2-4.9 4.7-15.9 17.7-24.6 13-8.7 26.3-11.8 29.6-6.9 3.2 4.9-4.7 15.9-17.7 24.6z"/>
				<g id="&lt;Group&gt;">
					<path id="&lt;Path&gt;" class="s9" d="m573.3 362.2h-229.8c-7.4 0-13.4-6.1-13.4-13.5 0-7.4 6-13.4 13.4-13.4h229.8c7.5 0 13.5 6 13.5 13.4 0 7.4-6 13.5-13.5 13.5z"/>
				</g>
			</g>
			<g id="&lt;Group&gt;">
				<path id="&lt;Path&gt;" class="s13" d="m530.3 551v-24.8h-186.9v24.8h56.4c25 0 46.4 14.6 54.7 35h-111.1v24.9h114.4c-3.1 27-27.9 48.1-58 48.1h-56.4v24.9h39.3l85.4 114.5 37-0.1-85.3-114.4h110.5v-24.9h-56c11.4-13.4 18.7-30 20-48.1h36v-24.9h-38.1c-3.1-13-9.3-24.9-17.9-35z"/>
			</g>
			<g id="&lt;Group&gt;">
				<path id="&lt;Path&gt;" class="s4" d="m734.4 916.9c-68.4 0-123.7-55.2-123.7-123.6 0-68.4 55.3-123.7 123.7-123.7 68.3 0 123.6 55.3 123.6 123.7 0 68.4-55.3 123.6-123.6 123.6z"/>
				<path id="&lt;Path&gt;" class="s4" d="m714.7 669.6h20.6v247.4h-20.6z"/>
				<path id="&lt;Path&gt;" class="s5" d="m712.3 916.9c-68.4 0-123.6-55.2-123.6-123.6 0-68.4 55.2-123.7 123.6-123.7 68.4 0 123.7 55.3 123.7 123.7 0 68.4-55.3 123.6-123.7 123.6z"/>
				<g id="&lt;Group&gt;">
					<path id="&lt;Path&gt;" class="s6" d="m712.3 884.9c-50.6 0-91.6-41-91.6-91.6 0-50.7 41-91.6 91.6-91.6 50.7 0 91.6 40.9 91.6 91.6 0 50.6-40.9 91.6-91.6 91.6z"/>
				</g>
				<path id="&lt;Path&gt;" class="s7" d="m626.5 793.3c0-49.6 39.4-90 88.7-91.5q-1.4-0.1-2.9-0.1c-50.6 0-91.6 41-91.6 91.6 0 50.6 41 91.6 91.6 91.6q1.5 0 2.9-0.1c-49.3-1.5-88.7-41.9-88.7-91.5z"/>
				<path id="&lt;Path&gt;" class="s8" d="m755.6 740.8c0-3.1-2.6-5.7-5.8-5.7l-74.3 0.1c-3.1 0-5.7 2.5-5.7 5.7 0 3.1 2.6 5.7 5.7 5.7h20.2c11.5 0 21.3 6.6 25.1 16h-45.3c-3.1 0-5.7 2.6-5.7 5.8 0 3.1 2.6 5.7 5.7 5.7l46.8-0.1c-1.4 12.5-12.8 22.1-26.6 22.1h-20.2c-3.1 0-5.7 2.6-5.7 5.7 0 3.2 2.6 5.8 5.7 5.8l12.4-0.1 37.1 49.8c1.3 1.8 3.3 2.8 5.5 2.8 5.6 0 8.8-6.4 5.5-10.9l-31.1-41.7h45c3.1 0 5.7-2.5 5.7-5.7 0-3.1-2.6-5.7-5.7-5.7h-20c5.2-6.2 8.6-13.8 9.2-22.1h10.8c3.1 0 5.7-2.5 5.7-5.7 0-3.1-2.6-5.7-5.7-5.7h-11.8c-1.4-5.9-4.3-11.4-8.2-16.1h20c3.1 0 5.7-2.5 5.7-5.7z"/>
			</g>
			<path id="&lt;Path&gt;" class="s14" d="m508.2 311.7c0-11.2 9-20.2 20.1-20.2h106.6c11.1 0 20.2 9 20.2 20.2v14.9c0 11.1-9.1 20.1-20.2 20.1h-106.6c-11.1 0-20.1-9-20.1-20.1z"/>
			<path id="&lt;Path&gt;" class="s13" d="m508.2 311.7c0-11.2 9-20.2 20.1-20.2h76.2c11.1 0 20.1 9 20.1 20.2v14.9c0 11.1-9 20.1-20.1 20.1h-76.2c-11.1 0-20.1-9-20.1-20.1z"/>
			<path id="&lt;Path&gt;" class="s15" d="m309.2 311.7c0-11.2 9-20.2 20.2-20.2h207.1c11.1 0 20.1 9 20.1 20.2v14.9c0 11.1-9 20.1-20.1 20.1h-207.1c-11.2 0-20.2-9-20.2-20.1z"/>
			<g id="&lt;Group&gt;">
				<path id="&lt;Path&gt;" class="s13" d="m516.8 413.6l-42.6-83.9c-6.9-13.6-23.6-19-37.1-12.2-13.6 6.9-19 23.6-12.2 37.1l42.6 83.9c6.9 13.6 23.5 19.1 37.1 12.2 13.5-6.8 19-23.5 12.2-37.1z"/>
				<path id="&lt;Path&gt;" class="s15" d="m508.2 413.6l-42.6-83.9c-6.9-13.6-23.6-19-37.1-12.2-13.6 6.9-19 23.6-12.2 37.1l42.6 83.9c6.9 13.6 23.5 19.1 37.1 12.2 13.5-6.8 19-23.5 12.2-37.1z"/>
				<path id="&lt;Path&gt;" class="s13" d="m366 413.6l42.5-83.9c6.9-13.6 23.6-19 37.1-12.2 13.6 6.9 19.1 23.6 12.2 37.1l-42.6 83.9c-6.8 13.6-23.5 19.1-37.1 12.2-13.5-6.8-19-23.5-12.1-37.1z"/>
				<path id="&lt;Path&gt;" class="s15" d="m358 413.6l42.6-83.9c6.8-13.6 23.5-19 37.1-12.2 13.5 6.9 19 23.6 12.1 37.1l-42.5 83.9c-6.9 13.6-23.6 19.1-37.1 12.2-13.6-6.8-19.1-23.5-12.2-37.1z"/>
				<path id="&lt;Path&gt;" class="s16" d="m435.3 360.6c-22.1 0-39.9-17.8-39.9-39.8 0-22 17.8-39.8 39.9-39.8 22 0 39.8 17.8 39.8 39.8 0 22-17.8 39.8-39.8 39.8z"/>
				<path id="&lt;Path&gt;" class="s17" d="m435.3 309.5c-9.4 0-16.9-4.8-16.9-10.8 0-5.9 7.5-10.7 16.9-10.7 9.3 0 16.8 4.8 16.8 10.7 0 6-7.5 10.8-16.8 10.8z"/>
				<path id="&lt;Path&gt;" class="s13" d="m435.3 343.5c-19.1 0-35-13.4-38.9-31.3-0.6 2.8-1 5.6-1 8.6 0 22 17.9 39.8 39.9 39.8 22 0 39.8-17.8 39.8-39.8 0-3-0.3-5.8-0.9-8.6-4 17.9-19.9 31.3-38.9 31.3z"/>
			</g>
			<path id="&lt;Path&gt;" class="s18" d="m641.5 713.5c-2.3-13.8-13.3-24.6-27.1-26.6 13.8-2.1 24.8-12.9 27.1-26.7 2.3 13.8 13.3 24.6 27.1 26.7-13.8 2-24.8 12.8-27.1 26.6z"/>
			<path id="&lt;Path&gt;" class="s18" d="m888.5 693.6c-2.3-13.8-13.2-24.6-27.1-26.7 13.9-2.1 24.8-12.9 27.1-26.6 2.3 13.7 13.3 24.5 27.1 26.6-13.8 2.1-24.8 12.9-27.1 26.7z"/>
			<path id="&lt;Path&gt;" class="s18" d="m944.4 841.1c-2.3-13.7-13.3-24.5-27.1-26.6 13.8-2.1 24.8-12.9 27.1-26.7 2.3 13.8 13.2 24.6 27.1 26.7-13.9 2.1-24.8 12.9-27.1 26.6z"/>
			<path id="&lt;Path&gt;" class="s18" d="m94.3 713c-2.3-13.8-13.2-24.6-27.1-26.6 13.9-2.1 24.8-12.9 27.1-26.7 2.4 13.8 13.3 24.6 27.2 26.7-13.9 2-24.8 12.8-27.2 26.6z"/>
			<path id="&lt;Path&gt;" class="s18" d="m808 905.9c-2.3-13.7-13.2-24.5-27.1-26.6 13.9-2.1 24.8-12.9 27.1-26.7 2.3 13.8 13.3 24.6 27.1 26.7-13.8 2.1-24.8 12.9-27.1 26.6z"/>
			<g id="&lt;Group&gt;">
				<g id="&lt;Group&gt;">
					<g id="&lt;Group&gt;">
						<path id="&lt;Path&gt;" class="s0" d="m171.5 802.5c0-8.1 6.5-14.7 14.6-14.7h245.8c8.1 0 14.7 6.6 14.7 14.7v104.7c0 8.1-6.6 14.6-14.7 14.6h-245.8c-8.1 0-14.6-6.5-14.6-14.6z"/>
						<g id="&lt;Group&gt;">
							<path id="&lt;Path&gt;" class="s1" d="m144.5 802.5c0-8.1 6.6-14.7 14.7-14.7h245.8c8.1 0 14.7 6.6 14.7 14.7v104.7c0 8.1-6.6 14.6-14.7 14.6h-245.8c-8.1 0-14.7-6.5-14.7-14.6z"/>
							<path id="&lt;Path&gt;" class="s2" d="m151.2 804.3c0-5.4 4.4-9.8 9.8-9.8h242.2c5.4 0 9.8 4.4 9.8 9.8v101.1c0 5.4-4.4 9.8-9.8 9.8h-242.2c-5.4 0-9.8-4.4-9.8-9.8z"/>
							<path id="&lt;Path&gt;" class="s3" d="m399.7 794.5h-117.6v120.6h117.6c7.4 0 13.3-6 13.3-13.3v-94c0-7.4-6-13.3-13.3-13.3z"/>
							<path id="&lt;Path&gt;" class="s1" d="m282.1 910.5c-30.8 0-55.7-24.9-55.7-55.7 0-30.8 24.9-55.6 55.7-55.6 30.8 0 55.7 24.8 55.7 55.6 0 30.8-24.9 55.7-55.7 55.7z"/>
							<path id="&lt;Path&gt;" class="s0" d="m308.9 821.9c0-2-1.6-3.6-3.6-3.6h-46.4c-2 0-3.6 1.6-3.6 3.6 0 2 1.6 3.6 3.6 3.6h12.6c7.2 0 13.3 4.1 15.7 10h-28.3c-2 0-3.6 1.6-3.6 3.6 0 2 1.6 3.6 3.6 3.6l29.2-0.1c-0.9 7.8-8 13.8-16.6 13.9h-12.6c-2 0-3.6 1.6-3.6 3.5 0 2 1.6 3.6 3.6 3.6h7.7l23.2 31.1c0.8 1.1 2.1 1.8 3.4 1.8 3.5-0.1 5.5-4.1 3.5-6.9l-19.5-26h28.2c1.9 0 3.5-1.6 3.5-3.6 0-2-1.6-3.6-3.5-3.6h-12.5c3.2-3.8 5.3-8.6 5.7-13.8h6.8c1.9 0 3.5-1.6 3.5-3.5 0-2-1.6-3.6-3.5-3.6h-7.4c-0.9-3.7-2.7-7.2-5.1-10.1h12.4c2 0 3.6-1.6 3.6-3.5z"/>
							<path id="&lt;Path&gt;" class="s0" d="m190.5 794.6h-26c-7.3 0-13.3 5.9-13.3 13.3v26.1c21.6-0.5 38.9-17.9 39.3-39.4z"/>
							<path id="&lt;Path&gt;" class="s0" d="m151.2 875.9v26c0 7.3 5.9 13.3 13.3 13.3h26.1c-0.5-21.6-17.9-38.9-39.4-39.3z"/>
							<path id="&lt;Path&gt;" class="s0" d="m373.8 915.1h25.9c7.4 0 13.3-6 13.3-13.3v-26.2c-21.5 0.5-38.9 17.9-39.2 39.5z"/>
							<path id="&lt;Path&gt;" class="s0" d="m413.1 833.7v-25.9c-0.1-7.4-6-13.3-13.4-13.3h-26.1c0.5 21.5 17.9 38.9 39.5 39.2z"/>
						</g>
					</g>
				</g>
			</g>
		</g>
	</g>
</svg>