<svg version="1.2" xmlns="http://www.w3.org/2000/svg" viewBox="0 0 1000 1000" width="1000" height="1000">
	<title>icon-svg</title>
	<style>
		.s0 { fill: #996b20 } 
		.s1 { fill: #dba32c } 
		.s2 { fill: #edcb3a } 
		.s3 { fill: #c18925 } 
		.s4 { fill: #aa7921 } 
	</style>
	<g id="BACKGROUND">
	</g>
	<g id="OBJECTS">
		<g id="&lt;Group&gt;">
			<g id="&lt;Group&gt;">
				<path id="&lt;Path&gt;" class="s0" d="m539.8 963.8c-247.3 0-447.1-199.9-447.1-447.1 0-247.2 199.8-447 447.1-447 247.2 0 447 199.8 447 447 0 247.2-199.8 447.1-447 447.1z"/>
				<path id="&lt;Path&gt;" class="s0" d="m468.5 70.2h74.7v893.6h-74.7z"/>
				<path id="&lt;Path&gt;" class="s1" d="m460 963.8c-247.2 0-447-199.9-447-447.1 0-247.2 199.8-447 447-447 247.3 0 447.1 199.8 447.1 447 0 247.2-199.8 447.1-447.1 447.1z"/>
				<g id="&lt;Group&gt;">
					<path id="&lt;Path&gt;" class="s2" d="m460 847.9c-183.1 0-331.2-147.9-331.2-330.9 0-183.1 148.1-331 331.2-331 183.2 0 331.2 147.9 331.2 331 0 183-148 330.9-331.2 330.9z"/>
				</g>
				<path id="&lt;Path&gt;" class="s3" d="m149.6 516.7c0-179.2 142.6-325.2 320.8-330.7q-4.9 0-10.4 0c-182.6 0-331.2 148-331.2 330.7 0 183.2 148.6 331.2 331.2 331.2q5.5 0 10.4-0.5c-178.2-5.4-320.8-151.5-320.8-330.7z"/>
				<path id="&lt;Path&gt;" class="s4" d="m616.5 327.1c0-11.4-9.4-20.3-20.8-20.3h-268.8c-11.4 0-20.3 9.4-20.3 20.8 0 11.4 8.9 20.3 20.3 20.3h73.2c41.1 0 76.8 24.3 90.6 57.9l-163.8 0.5c-11.4 0-20.3 8.9-20.3 20.3 0 11.4 8.9 20.8 20.3 20.8h169.3c-5 44.6-46.1 79.7-96.1 79.7h-72.7c-11.4 0-20.8 9.4-20.8 20.8 0 11.4 9.4 20.3 20.8 20.3h44.5l134.2 180.2c4.4 6.4 11.9 9.9 19.8 9.9 20.3 0 31.7-23.3 19.8-39.6l-112.4-150.5h162.4c11.4 0 20.8-9.4 20.8-20.8 0-11.4-9.4-20.3-20.8-20.3h-72.3c19.3-22.3 31.2-50 33.2-79.7h39.1c11.4 0 20.8-9.4 20.8-20.8 0-11.4-9.4-20.8-20.8-20.8h-42.6c-4.9-21.3-15.3-41.1-29.7-57.9h72.3c11.4 0 20.8-9.4 20.8-20.8z"/>
			</g>
		</g>
	</g>
</svg>