<svg version="1.2" xmlns="http://www.w3.org/2000/svg" viewBox="0 0 2200 2200" width="2200" height="2200">
	<title>Circle Check and Cross Marks-ai</title>
	<style>
		.s0 { fill: #2fd35e } 
	</style>
	<g id="Objects">
		<g id="&lt;Group&gt;">
			<path id="&lt;Compound Path&gt;" fill-rule="evenodd" class="s0" d="m1099.9 2182.8c-598.8 0-1082.9-484.1-1082.9-1082.9 0-598.8 484.1-1082.9 1082.9-1082.9 598.8 0 1082.9 484.1 1082.9 1082.9 0 598.8-484.1 1082.9-1082.9 1082.9zm-360.7-1937c-110.4 46.7-209.5 113.5-294.7 198.7-85.2 85.2-152 184.3-198.7 294.7-48.3 114.1-72.8 235.5-72.8 360.7 0 125.2 24.5 246.6 72.8 360.7 46.7 110.4 113.5 209.5 198.7 294.7 85.2 85.2 184.3 152 294.7 198.7 114.1 48.3 235.5 72.8 360.7 72.8 125.2 0 246.6-24.5 360.7-72.8 110.4-46.7 209.5-113.5 294.7-198.7 85.2-85.2 152-184.3 198.7-294.7 48.3-114.1 72.8-235.5 72.8-360.7 0-125.2-24.5-246.6-72.8-360.7-46.7-110.4-113.5-209.5-198.7-294.7-85.2-85.2-184.3-152-294.7-198.7-114.1-48.3-235.5-72.8-360.7-72.8-125.2 0-246.6 24.5-360.7 72.8z"/>
			<path id="&lt;Path&gt;" class="s0" d="m911.4 1579.6c-22.6 0-44.2-9.8-59-27l-231.4-267.8c-28.2-32.6-24.6-81.9 8-110 32.6-28.2 81.9-24.6 110 8l168.4 194.9 550.2-726.6c26-34.3 74.9-41.1 109.3-15.1 34.3 26 41.1 74.9 15.1 109.3l-608.4 803.4c-14.2 18.8-36.2 30.1-59.7 30.9q-1.2 0-2.5 0z"/>
		</g>
	</g>
</svg>